{
  "accessors": [
    {
      "bufferView": 2,
      "componentType": 5126,
      "count": 65532,
      "max": [
        3.2082910537719727,
        11.66663932800293,
        3.6251111030578613
      ],
      "min": [
        -3.1700689792633057,
        5.076879978179932,
        -3.1787679195404053
      ],
      "type": "VEC3"
    },
    {
      "bufferView": 2,
      "byteOffset": 786384,
      "componentType": 5126,
      "count": 65532,
      "max": [
        1.0,
        0.999904215335846,
        0.9989786148071289
      ],
      "min": [
        -0.9999577403068542,
        -0.9999393820762634,
        -0.9999485015869141
      ],
      "type": "VEC3"
    },
    {
      "bufferView": 3,
      "componentType": 5126,
      "count": 65532,
      "max": [
        0.95686274766922,
        0.9058823585510254,
        0.8980392217636108,
        1.0
      ],
      "min": [
        0.0,
        0.0,
        0.0,
        1.0
      ],
      "type": "VEC4"
    },
    {
      "bufferView": 1,
      "componentType": 5126,
      "count": 65532,
      "max": [
        0.9998779892921448,
        0.988461971282959
      ],
      "min": [
        0.00023700000019744039,
        1.1000000085914508e-05
      ],
      "type": "VEC2"
    },
    {
      "bufferView": 0,
      "componentType": 5125,
      "count": 356028,
      "type": "SCALAR"
    },
    {
      "bufferView": 2,
      "byteOffset": 1572768,
      "componentType": 5126,
      "count": 65532,
      "max": [
        4.514807224273682,
        11.33659553527832,
        3.117971897125244
      ],
      "min": [
        -3.2855589389801025,
        3.7670130729675293,
        -4.26242208480835
      ],
      "type": "VEC3"
    },
    {
      "bufferView": 2,
      "byteOffset": 2359152,
      "componentType": 5126,
      "count": 65532,
      "max": [
        0.9999743700027466,
        0.9996848702430725,
        0.9999937415122986
      ],
      "min": [
        -0.999978244304657,
        -0.9999539852142334,
        -0.9976800084114075
      ],
      "type": "VEC3"
    },
    {
      "bufferView": 3,
      "byteOffset": 1048512,
      "componentType": 5126,
      "count": 65532,
      "max": [
        0.9529411792755127,
        0.9215686321258545,
        0.9372549057006836,
        1.0
      ],
      "min": [
        0.054901961237192154,
        0.08627451211214066,
        0.04313725605607033,
        1.0
      ],
      "type": "VEC4"
    },
    {
      "bufferView": 1,
      "byteOffset": 524256,
      "componentType": 5126,
      "count": 65532,
      "max": [
        0.9999780058860779,
        0.9892449975013733
      ],
      "min": [
        0.0033130000811070204,
        0.011567999608814716
      ],
      "type": "VEC2"
    },
    {
      "bufferView": 0,
      "byteOffset": 1424112,
      "componentType": 5125,
      "count": 348309,
      "type": "SCALAR"
    },
    {
      "bufferView": 2,
      "byteOffset": 3145536,
      "componentType": 5126,
      "count": 65532,
      "max": [
        4.277284145355225,
        12.288881301879883,
        3.6297249794006348
      ],
      "min": [
        -4.178040027618408,
        4.369624137878418,
        -4.501535892486572
      ],
      "type": "VEC3"
    },
    {
      "bufferView": 2,
      "byteOffset": 3931920,
      "componentType": 5126,
      "count": 65532,
      "max": [
        0.9999995231628418,
        0.9999679923057556,
        0.9999970197677612
      ],
      "min": [
        -0.999978244304657,
        -0.9999721050262451,
        -0.9999430179595947
      ],
      "type": "VEC3"
    },
    {
      "bufferView": 3,
      "byteOffset": 2097024,
      "componentType": 5126,
      "count": 65532,
      "max": [
        0.9490196108818054,
        0.9254902005195618,
        0.8745098114013672,
        1.0
      ],
      "min": [
        0.0,
        0.0,
        0.0,
        1.0
      ],
      "type": "VEC4"
    },
    {
      "bufferView": 1,
      "byteOffset": 1048512,
      "componentType": 5126,
      "count": 65532,
      "max": [
        0.9999979734420776,
        0.9842029809951782
      ],
      "min": [
        9.999999747378752e-06,
        4.8999998398358e-05
      ],
      "type": "VEC2"
    },
    {
      "bufferView": 0,
      "byteOffset": 2817348,
      "componentType": 5125,
      "count": 318957,
      "type": "SCALAR"
    },
    {
      "bufferView": 2,
      "byteOffset": 4718304,
      "componentType": 5126,
      "count": 43860,
      "max": [
        4.694838047027588,
        12.288881301879883,
        3.2421069145202637
      ],
      "min": [
        -4.166191101074219,
        3.732774019241333,
        -4.464385986328125
      ],
      "type": "VEC3"
    },
    {
      "bufferView": 2,
      "byteOffset": 5244624,
      "componentType": 5126,
      "count": 43860,
      "max": [
        0.9999579787254333,
        0.9997544884681702,
        0.9999970197677612
      ],
      "min": [
        -0.999978244304657,
        -0.9992296695709229,
        -0.9916849732398987
      ],
      "type": "VEC3"
    },
    {
      "bufferView": 3,
      "byteOffset": 3145536,
      "componentType": 5126,
      "count": 43860,
      "max": [
        0.9686274528503418,
        0.95686274766922,
        0.8941176533699036,
        1.0
      ],
      "min": [
        0.04313725605607033,
        0.09019608050584793,
        0.08235294371843338,
        1.0
      ],
      "type": "VEC4"
    },
    {
      "bufferView": 1,
      "byteOffset": 1572768,
      "componentType": 5126,
      "count": 43860,
      "max": [
        0.9994320273399353,
        0.9871450066566467
      ],
      "min": [
        7.500000356230885e-05,
        0.0006060000159777701
      ],
      "type": "VEC2"
    },
    {
      "bufferView": 0,
      "byteOffset": 4093176,
      "componentType": 5125,
      "count": 176703,
      "type": "SCALAR"
    }
  ],
  "asset": {
    "extras": {
      "author": "Nabil Mohareb (https://sketchfab.com/nmohareb)",
      "license": "CC-BY-4.0 (http://creativecommons.org/licenses/by/4.0/)",
      "source": "https://sketchfab.com/3d-models/the-gate-9d03f0aaf2a244bd851b5e4382aedba9",
      "title": "The Gate"
    },
    "generator": "Sketchfab-12.64.0",
    "version": "2.0"
  },
  "bufferViews": [
    {
      "buffer": 0,
      "byteLength": 4799988,
      "name": "floatBufferViews",
      "target": 34963
    },
    {
      "buffer": 0,
      "byteLength": 1923648,
      "byteOffset": 4799988,
      "byteStride": 8,
      "name": "floatBufferViews",
      "target": 34962
    },
    {
      "buffer": 0,
      "byteLength": 5770944,
      "byteOffset": 6723636,
      "byteStride": 12,
      "name": "floatBufferViews",
      "target": 34962
    },
    {
      "buffer": 0,
      "byteLength": 3847296,
      "byteOffset": 12494580,
      "byteStride": 16,
      "name": "floatBufferViews",
      "target": 34962
    }
  ],
  "buffers": [
    {
      "byteLength": 16341876,
      "uri": "scene.bin"
    }
  ],
  "extensionsUsed": [
    "KHR_materials_unlit"
  ],
  "materials": [
    {
      "doubleSided": true,
      "extensions": {
        "KHR_materials_unlit": {}
      },
      "name": "the_gate_400_low_res",
      "pbrMetallicRoughness": {
        "metallicFactor": 0.0
      }
    }
  ],
  "meshes": [
    {
      "name": "Object_0",
      "primitives": [
        {
          "attributes": {
            "COLOR_0": 2,
            "NORMAL": 1,
            "POSITION": 0,
            "TEXCOORD_0": 3
          },
          "indices": 4,
          "material": 0,
          "mode": 4
        }
      ]
    },
    {
      "name": "Object_1",
      "primitives": [
        {
          "attributes": {
            "COLOR_0": 7,
            "NORMAL": 6,
            "POSITION": 5,
            "TEXCOORD_0": 8
          },
          "indices": 9,
          "material": 0,
          "mode": 4
        }
      ]
    },
    {
      "name": "Object_2",
      "primitives": [
        {
          "attributes": {
            "COLOR_0": 12,
            "NORMAL": 11,
            "POSITION": 10,
            "TEXCOORD_0": 13
          },
          "indices": 14,
          "material": 0,
          "mode": 4
        }
      ]
    },
    {
      "name": "Object_3",
      "primitives": [
        {
          "attributes": {
            "COLOR_0": 17,
            "NORMAL": 16,
            "POSITION": 15,
            "TEXCOORD_0": 18
          },
          "indices": 19,
          "material": 0,
          "mode": 4
        }
      ]
    }
  ],
  "nodes": [
    {
      "children": [
        1
      ],
      "matrix": [
        0.9029679298400879,
        -0.33769929409027094,
        -0.2657217979431153,
        0.0,
        -0.2332276999950409,
        0.13421310484409354,
        -0.9631156325340271,
        0.0,
        0.36090680956840515,
        0.9316362142562866,
        0.04242930561304113,
        0.0,
        2.0507428646087646,
        -1.0176976919174194,
        -0.20831704139709495,
        1.0
      ],
      "name": "Sketchfab_model"
    },
    {
      "children": [
        2,
        3,
        4,
        5
      ],
      "name": "the gate 400 low res.obj.cleaner.materialmerger.gles"
    },
    {
      "mesh": 0,
      "name": "Object_2"
    },
    {
      "mesh": 1,
      "name": "Object_3"
    },
    {
      "mesh": 2,
      "name": "Object_4"
    },
    {
      "mesh": 3,
      "name": "Object_5"
    }
  ],
  "scene": 0,
  "scenes": [
    {
      "name": "Sketchfab_Scene",
      "nodes": [
        0
      ]
    }
  ]
}
