{
  "accessors": [
    {
      "bufferView": 2,
      "componentType": 5126,
      "count": 65534,
      "max": [
        25.545028686523438,
        41.86360168457031,
        27.605140686035156
      ],
      "min": [
        -55.0193977355957,
        -29.131927490234375,
        -51.42224884033203
      ],
      "type": "VEC3"
    },
    {
      "bufferView": 2,
      "byteOffset": 786408,
      "componentType": 5126,
      "count": 65534,
      "max": [
        0.999967098236084,
        0.9999338984489441,
        0.9999678730964661
      ],
      "min": [
        -0.9999426603317261,
        -0.9999938607215881,
        -0.9999798536300659
      ],
      "type": "VEC3"
    },
    {
      "bufferView": 1,
      "componentType": 5126,
      "count": 65534,
      "max": [
        0.9990050196647644,
        0.9999690055847168
      ],
      "min": [
        0.00013499999477062374,
        0.0009950000094249845
      ],
      "type": "VEC2"
    },
    {
      "bufferView": 0,
      "componentType": 5125,
      "count": 259209,
      "type": "SCALAR"
    },
    {
      "bufferView": 2,
      "byteOffset": 1572816,
      "componentType": 5126,
      "count": 31606,
      "max": [
        34.5866813659668,
        34.003761291503906,
        18.350914001464844
      ],
      "min": [
        -60.59916687011719,
        -30.686553955078125,
        -51.654842376708984
      ],
      "type": "VEC3"
    },
    {
      "bufferView": 2,
      "byteOffset": 1952088,
      "componentType": 5126,
      "count": 31606,
      "max": [
        0.999961256980896,
        0.999255359172821,
        0.9997592568397522
      ],
      "min": [
        -0.9999514818191528,
        -0.9998070001602173,
        -0.9999018907546997
      ],
      "type": "VEC3"
    },
    {
      "bufferView": 1,
      "byteOffset": 524272,
      "componentType": 5126,
      "count": 31606,
      "max": [
        0.9989879727363586,
        0.9998850226402283
      ],
      "min": [
        0.00030300000798888505,
        0.00019299999985378236
      ],
      "type": "VEC2"
    },
    {
      "bufferView": 0,
      "byteOffset": 1036836,
      "componentType": 5125,
      "count": 117852,
      "type": "SCALAR"
    },
    {
      "bufferView": 2,
      "byteOffset": 2331360,
      "componentType": 5126,
      "count": 65532,
      "max": [
        26.521564483642578,
        41.02570343017578,
        26.555908203125
      ],
      "min": [
        -52.033355712890625,
        -24.432838439941406,
        -48.85456085205078
      ],
      "type": "VEC3"
    },
    {
      "bufferView": 2,
      "byteOffset": 3117744,
      "componentType": 5126,
      "count": 65532,
      "max": [
        0.9999808669090271,
        0.9996882677078247,
        0.9999678730964661
      ],
      "min": [
        -0.9999514818191528,
        -0.9999865293502808,
        -0.9999798536300659
      ],
      "type": "VEC3"
    },
    {
      "bufferView": 3,
      "componentType": 5126,
      "count": 65532,
      "max": [
        0.9999308586120605,
        0.9999692440032959,
        0.9999228715896606,
        1.0
      ],
      "min": [
        -0.9999787211418152,
        -0.9999906420707703,
        -0.9999799728393555,
        -1.0
      ],
      "type": "VEC4"
    },
    {
      "bufferView": 1,
      "byteOffset": 777120,
      "componentType": 5126,
      "count": 65532,
      "max": [
        0.9999909996986389,
        0.9999759793281555
      ],
      "min": [
        0.00026199998683296144,
        0.0004939999780617654
      ],
      "type": "VEC2"
    },
    {
      "bufferView": 0,
      "byteOffset": 1508244,
      "componentType": 5125,
      "count": 256638,
      "type": "SCALAR"
    },
    {
      "bufferView": 2,
      "byteOffset": 3904128,
      "componentType": 5126,
      "count": 30533,
      "max": [
        34.630592346191406,
        34.46424102783203,
        17.94539451599121
      ],
      "min": [
        -64.67517852783203,
        -32.231719970703125,
        -51.83436584472656
      ],
      "type": "VEC3"
    },
    {
      "bufferView": 2,
      "byteOffset": 4270524,
      "componentType": 5126,
      "count": 30533,
      "max": [
        0.9990445375442505,
        0.9993236660957336,
        0.9998153448104858
      ],
      "min": [
        -0.999890148639679,
        -1.0,
        -0.99983149766922
      ],
      "type": "VEC3"
    },
    {
      "bufferView": 3,
      "byteOffset": 1048512,
      "componentType": 5126,
      "count": 30533,
      "max": [
        0.9998748898506165,
        0.9997115135192871,
        0.9999671578407288,
        1.0
      ],
      "min": [
        -0.9999458193778992,
        -0.9999760985374451,
        -0.9998493790626526,
        -1.0
      ],
      "type": "VEC4"
    },
    {
      "bufferView": 1,
      "byteOffset": 1301376,
      "componentType": 5126,
      "count": 30533,
      "max": [
        0.999987006187439,
        0.9998970031738281
      ],
      "min": [
        0.00010299999848939478,
        0.0002629999944474548
      ],
      "type": "VEC2"
    },
    {
      "bufferView": 0,
      "byteOffset": 2534796,
      "componentType": 5125,
      "count": 116301,
      "type": "SCALAR"
    }
  ],
  "asset": {
    "extras": {
      "author": "Penwith Landscape Partnership (https://sketchfab.com/PenwithLandscapePartnership)",
      "license": "CC-BY-NC-4.0 (http://creativecommons.org/licenses/by-nc/4.0/)",
      "source": "https://sketchfab.com/3d-models/madron-baptistry-93889efc6e6d4fcf89a1d64331935830",
      "title": "Madron Baptistry"
    },
    "generator": "Sketchfab-12.82.0",
    "version": "2.0"
  },
  "bufferViews": [
    {
      "buffer": 0,
      "byteLength": 3000000,
      "name": "floatBufferViews",
      "target": 34963
    },
    {
      "buffer": 0,
      "byteLength": 1545640,
      "byteOffset": 3000000,
      "byteStride": 8,
      "name": "floatBufferViews",
      "target": 34962
    },
    {
      "buffer": 0,
      "byteLength": 4636920,
      "byteOffset": 4545640,
      "byteStride": 12,
      "name": "floatBufferViews",
      "target": 34962
    },
    {
      "buffer": 0,
      "byteLength": 1537040,
      "byteOffset": 9182560,
      "byteStride": 16,
      "name": "floatBufferViews",
      "target": 34962
    }
  ],
  "buffers": [
    {
      "byteLength": 10719600,
      "uri": "scene.bin"
    }
  ],
  "images": [
    {
      "uri": "textures/MadronBaptistry250k_baseColor.jpeg"
    },
    {
      "uri": "textures/MadronBaptistry250k_metallicRoughness.png"
    },
    {
      "uri": "textures/MadronBaptistry250k1_baseColor.jpeg"
    },
    {
      "uri": "textures/MadronBaptistry250k1_metallicRoughness.png"
    },
    {
      "uri": "textures/MadronBaptistry250k1_normal.png"
    }
  ],
  "materials": [
    {
      "doubleSided": true,
      "name": "MadronBaptistry250k",
      "occlusionTexture": {
        "index": 1
      },
      "pbrMetallicRoughness": {
        "baseColorTexture": {
          "index": 0
        },
        "metallicFactor": 0.0,
        "metallicRoughnessTexture": {
          "index": 1
        }
      }
    },
    {
      "doubleSided": true,
      "name": "MadronBaptistry250k1",
      "normalTexture": {
        "index": 4
      },
      "occlusionTexture": {
        "index": 3
      },
      "pbrMetallicRoughness": {
        "baseColorTexture": {
          "index": 2
        },
        "metallicFactor": 0.0,
        "metallicRoughnessTexture": {
          "index": 3
        }
      }
    }
  ],
  "meshes": [
    {
      "name": "Object_0",
      "primitives": [
        {
          "attributes": {
            "NORMAL": 1,
            "POSITION": 0,
            "TEXCOORD_0": 2
          },
          "indices": 3,
          "material": 0,
          "mode": 4
        }
      ]
    },
    {
      "name": "Object_1",
      "primitives": [
        {
          "attributes": {
            "NORMAL": 5,
            "POSITION": 4,
            "TEXCOORD_0": 6
          },
          "indices": 7,
          "material": 0,
          "mode": 4
        }
      ]
    },
    {
      "name": "Object_2",
      "primitives": [
        {
          "attributes": {
            "NORMAL": 9,
            "POSITION": 8,
            "TANGENT": 10,
            "TEXCOORD_0": 11
          },
          "indices": 12,
          "material": 1,
          "mode": 4
        }
      ]
    },
    {
      "name": "Object_3",
      "primitives": [
        {
          "attributes": {
            "NORMAL": 14,
            "POSITION": 13,
            "TANGENT": 15,
            "TEXCOORD_0": 16
          },
          "indices": 17,
          "material": 1,
          "mode": 4
        }
      ]
    }
  ],
  "nodes": [
    {
      "children": [
        1
      ],
      "matrix": [
        0.08737333770304234,
        -0.0344943344830919,
        -0.07539220187095987,
        0.0,
        -0.0732000697175863,
        -0.0835256267093709,
        -0.046617204359098906,
        0.0,
        -0.03893062010896964,
        0.07963387779525412,
        -0.08155241341940477,
        0.0,
        -5.113919734954834,
        -5.067540168762203,
        -20.55742835998535,
        1.0
      ],
      "name": "Sketchfab_model"
    },
    {
      "children": [
        2,
        3,
        4,
        5
      ],
      "name": "MadronBaptistry250k.obj.cleaner.materialmerger.gles"
    },
    {
      "mesh": 0,
      "name": "Object_2"
    },
    {
      "mesh": 1,
      "name": "Object_3"
    },
    {
      "mesh": 2,
      "name": "Object_4"
    },
    {
      "mesh": 3,
      "name": "Object_5"
    }
  ],
  "samplers": [
    {
      "magFilter": 9729,
      "minFilter": 9987,
      "wrapS": 10497,
      "wrapT": 10497
    }
  ],
  "scene": 0,
  "scenes": [
    {
      "name": "Sketchfab_Scene",
      "nodes": [
        0
      ]
    }
  ],
  "textures": [
    {
      "sampler": 0,
      "source": 0
    },
    {
      "sampler": 0,
      "source": 1
    },
    {
      "sampler": 0,
      "source": 2
    },
    {
      "sampler": 0,
      "source": 3
    },
    {
      "sampler": 0,
      "source": 4
    }
  ]
}
